<?xml version="1.0" encoding="UTF-8"?>
<svg width="226px" height="48px" viewBox="0 0 226 48" version="1.1" xmlns="http://www.w3.org/2000/svg" xmlns:xlink="http://www.w3.org/1999/xlink">
    <title>开放原子开源基金会</title>
    <defs>
        <linearGradient x1="67.4227585%" y1="78.2358305%" x2="33.5378007%" y2="23.59321%" id="linearGradient-1">
            <stop stop-color="#1281FF" offset="0%"></stop>
            <stop stop-color="#5CE9FF" offset="100%"></stop>
        </linearGradient>
    </defs>
    <g id="logo/开放原子开源基金会" stroke="none" stroke-width="1" fill="none" fill-rule="evenodd">
        <g id="2030资源-1论坛logo" transform="translate(13.000000, 4.000000)">
            <path d="M37.9221411,10.8905109 C39.8091091,14.5820551 40.5141811,18.7649162 39.9416058,22.8710462 C35.6680576,20.3572087 30.960302,18.6685573 26.0632603,17.892944 L23.1435523,10.8905109 L37.9221411,10.8905109 Z M16.7639903,17.5620438 C17.863747,17.4695864 18.9683698,17.4209246 20.0681265,17.4160584 C21.1678832,17.4111922 22.2725061,17.4695864 23.3722628,17.5620438 L21.5231144,11.7956204 C21.2965725,11.1852985 20.7142704,10.7803177 20.0632603,10.7803177 C19.4122503,10.7803177 18.8299482,11.1852985 18.6034063,11.7956204 L16.7639903,17.5620438 Z M2.21411192,10.8905109 L16.9781022,10.8905109 L14.0583942,17.892944 C9.16639407,18.6703227 4.46374518,20.3589187 0.194647202,22.8710462 C0.0661510999,21.9422479 0.00111795252,21.0057706 -2.03245098e-05,20.0681265 C-0.00454911901,16.8761105 0.754617205,13.7293244 2.21411192,10.8905109 L2.21411192,10.8905109 Z M38.7542579,27.4355231 C35.5256833,23.9404091 31.441654,21.3474279 26.9051095,19.9124088 L32.5304136,33.4695864 C33.0462287,34.7055961 33.703163,34.8418491 34.4768856,34.0291971 C36.3225349,32.1266847 37.7730013,29.8773867 38.7445255,27.4111922 L38.7542579,27.4355231 Z M1.38686131,27.4355231 C2.35659308,29.9014917 3.80542795,32.1508244 5.64963504,34.053528 C6.43309002,34.86618 7.10948905,34.729927 7.59610706,33.4939173 L13.2360097,19.9124088 C8.70102893,21.3382673 4.61671325,23.9230437 1.38686131,27.4111922 L1.38686131,27.4355231 Z M29.810219,37.6545012 L23.8978102,19.2068127 C22.6325175,18.9908264 21.3516995,18.8785311 20.0681265,18.8710462 C18.7845536,18.8785311 17.5037355,18.9908264 16.2384428,19.2068127 L10.3309002,37.620438 C16.3853479,40.9757615 23.7411727,40.9757615 29.7956204,37.620438 L29.810219,37.6545012 Z M20.0681265,-5.15510263e-06 C26.2299206,-0.00441366655 32.0513251,2.82553545 35.8540146,7.67396594 C30.6822216,8.90414422 25.3842133,9.52474938 20.0681265,9.52311758 C14.7520709,9.52421466 9.45412473,8.90361677 4.28223844,7.67396594 C8.08539737,2.82611708 13.9064999,-0.00368521797 20.0681265,-5.15510263e-06 L20.0681265,-5.15510263e-06 Z" id="形状" fill="url(#linearGradient-1)"></path>
            <path d="M66.8321168,9.02676399 L69.9659367,9.02676399 L69.3284672,6.90024331 L71.2749392,6.90024331 L71.9172749,9.02676399 L74.4525547,9.02676399 L74.4525547,10.3454988 L70.0729927,10.3454988 L70.0729927,11.9951338 L73.703163,11.9951338 L73.703163,20.5985401 C73.703163,21.1360436 73.2674304,21.5717762 72.729927,21.5717762 L70.1654501,21.5717762 L70.1654501,20.2627737 L71.7469586,20.2627737 L71.7469586,13.3138686 L70.0827251,13.3138686 L70.0827251,14.2384428 C70.0827251,16.6715328 69.7274939,19.8004866 68.3357664,21.5815085 L66.5352798,21.5815085 C67.892944,19.1046229 68.1167883,16.7737226 68.1167883,14.43309 L68.1167883,10.3454988 L66.8126521,10.3454988 L66.8126521,9.02676399 L66.8321168,9.02676399 Z M50.7737226,7.15815085 L64.4768856,7.15815085 L64.4768856,8.48175182 L62.3260341,8.48175182 L62.3260341,13.5912409 L64.9975669,13.5912409 L64.9975669,14.9099757 L62.3260341,14.9099757 L62.3260341,21.5815085 L60.3406326,21.5815085 L60.3406326,14.9099757 L55.2749392,14.9099757 C55.1484185,17.1289538 54.4817518,19.6545012 52.7055961,21.5815085 L50.4525547,21.5815085 C52.1779463,19.7748042 53.1923822,17.4054829 53.3090024,14.9099757 L50.2335766,14.9099757 L50.2335766,13.5912409 L53.3284672,13.5912409 L53.3284672,8.48175182 L50.7493917,8.48175182 L50.7493917,7.15815085 L50.7737226,7.15815085 Z M60.3406326,8.48175182 L55.2798054,8.48175182 L55.2798054,13.5912409 L60.3406326,13.5912409 L60.3406326,8.48175182 Z M189.07056,8.48175182 C188.646947,10.0799683 187.85727,11.5576971 186.76399,12.7980535 L184.914842,12.7980535 C186.149636,11.1262525 186.994317,9.19911755 187.386861,7.15815085 L197.513382,7.15815085 C197.905927,9.19911755 198.750607,11.1262525 199.985401,12.7980535 L198.107056,12.7980535 C197.013777,11.5576971 196.2241,10.0799683 195.800487,8.48175182 L189.07056,8.48175182 Z M188.939173,20.2627737 L196.06326,20.2627737 L195.090024,17.6642336 L197.138686,17.6642336 L198.59854,21.5815085 L186.253041,21.5815085 L188.491484,16.1216545 L186.145985,16.1216545 L186.145985,14.8029197 L198.725061,14.8029197 L198.725061,16.1216545 L190.652068,16.1216545 L188.953771,20.2627737 L188.939173,20.2627737 Z M188.048662,11.5036496 L188.048662,12.7980535 L196.807786,12.7980535 L196.807786,11.4793187 L188.048662,11.5036496 Z M172.218978,8.50608273 C171.795365,10.1042992 171.005688,11.582028 169.912409,12.8223844 L168.034063,12.8223844 C169.268858,11.1505834 170.113538,9.22344845 170.506083,7.18248175 L180.632603,7.18248175 C181.025148,9.22344845 181.869828,11.1505834 183.104623,12.8223844 L181.226277,12.8223844 C180.132998,11.582028 179.343321,10.1042992 178.919708,8.50608273 L172.218978,8.50608273 Z M181.167883,17.2652068 L179.119221,17.2652068 L178.111922,20.2676399 L176.554745,20.2676399 L176.554745,16.1216545 L181.858881,16.1216545 L181.858881,14.8029197 L176.554745,14.8029197 L176.554745,12.7980535 L179.961071,12.7980535 L179.961071,11.4793187 L171.201946,11.4793187 L171.201946,12.7980535 L174.608273,12.7980535 L174.608273,14.8029197 L169.294404,14.8029197 L169.294404,16.1216545 L174.59854,16.1216545 L174.59854,20.2627737 L173.041363,20.2627737 L172.029197,17.2603406 L169.985401,17.2603406 L170.992701,20.2627737 L168.199513,20.2627737 L168.199513,21.5815085 L182.96837,21.5815085 L182.96837,20.2627737 L180.175182,20.2627737 L181.182482,17.2603406 L181.167883,17.2652068 Z M151.868613,7.8540146 L153.396594,7.8540146 L153.396594,6.88077859 L155.343066,6.88077859 L155.343066,7.8540146 L162.072993,7.8540146 L162.072993,6.88077859 L164.019465,6.88077859 L164.019465,7.8540146 L165.552311,7.8540146 L165.552311,9.17274939 L164.019465,9.17274939 L164.019465,14.8029197 L166.068127,14.8029197 L166.068127,16.1216545 L164.019465,16.1216545 C164.383579,17.284904 164.962969,18.3694031 165.727494,19.3187348 L163.844282,19.3187348 C163.004648,18.4044664 162.383964,17.3111975 162.029197,16.1216545 L159.6691,16.1216545 L159.6691,17.3527981 L162.10219,17.3527981 L162.10219,18.6715328 L159.6691,18.6715328 L159.6691,20.2627737 L166.068127,20.2627737 L166.068127,21.5815085 L151.3382,21.5815085 L151.3382,20.2627737 L157.737226,20.2627737 L157.737226,18.6715328 L155.304136,18.6715328 L155.304136,17.3527981 L157.737226,17.3527981 L157.737226,16.1216545 L155.377129,16.1216545 C155.024105,17.3108889 154.405068,18.4041882 153.56691,19.3187348 L151.683698,19.3187348 C152.446493,18.3690177 153.024219,17.2845428 153.386861,16.1216545 L151.3382,16.1216545 L151.3382,14.8029197 L153.386861,14.8029197 L153.386861,9.17274939 L151.858881,9.17274939 L151.858881,7.8540146 L151.868613,7.8540146 Z M155.367397,12.486618 L161.498783,12.486618 L161.498783,13.8053528 L155.367397,13.8053528 L155.367397,14.8029197 L162.097324,14.8029197 L162.097324,9.17274939 L155.367397,9.17274939 L155.367397,10.1459854 L161.498783,10.1459854 L161.498783,11.4647202 L155.367397,11.4647202 L155.367397,12.4622871 L155.367397,12.486618 Z M138.452555,7.15815085 L149.644769,7.15815085 L149.644769,8.48175182 L145.878345,8.48175182 L145.518248,9.94160584 L149.026764,9.94160584 L149.026764,15.1386861 C149.026764,15.6761895 148.591031,16.1119221 148.053528,16.1119221 L146.155718,16.1119221 L146.155718,20.5888078 C146.155718,21.1263112 145.719985,21.5620438 145.182482,21.5620438 L143.425791,21.5620438 L143.425791,20.2627737 L144.194647,20.2627737 L144.194647,16.1216545 L141.313869,16.1216545 L141.313869,9.95620438 L143.474453,9.95620438 L143.829684,8.49635036 L140.447689,8.49635036 L140.447689,14.3844282 C140.447689,16.7737226 140.136253,19.7372263 139.060827,21.5961071 L137.226277,21.5961071 C138.282238,19.2116788 138.442822,16.8710462 138.442822,14.5742092 L138.442822,7.15815085 L138.452555,7.15815085 Z M134.481752,10.3746959 L135.313869,12.6034063 L137.284672,12.6034063 L136.452555,10.3746959 L134.481752,10.3746959 Z M134.481752,7.15815085 L135.313869,9.38686131 L137.284672,9.38686131 L136.452555,7.15815085 L134.481752,7.15815085 Z M137.270073,13.5912409 L135.279805,13.5912409 C135.361298,16.3140551 134.916846,19.0270299 133.970803,21.5815085 L135.917275,21.5815085 C136.832117,19.5571776 137.294404,16.7445255 137.294404,13.5912409 L137.270073,13.5912409 Z M146.729927,17.1776156 C146.793187,18.7542579 147.138686,20.4136253 147.985401,21.5815085 L149.79562,21.5815085 C149.053547,20.2317194 148.66046,18.7179187 148.652068,17.1776156 L146.729927,17.1776156 Z M143.416058,17.1776156 L141.469586,17.1776156 C141.461194,18.7179187 141.068108,20.2317194 140.326034,21.5815085 L142.136253,21.5815085 C142.982968,20.4136253 143.323601,18.7542579 143.391727,17.1776156 L143.416058,17.1776156 Z M143.260341,12.379562 L146.442822,12.379562 L146.442822,13.6982968 L143.260341,13.6982968 L143.260341,14.8029197 L147.055961,14.8029197 L147.055961,11.2798054 L143.260341,11.2798054 L143.260341,12.379562 Z M118.160584,7.15815085 L131.873479,7.15815085 L131.873479,8.48175182 L129.73236,8.48175182 L129.73236,13.5912409 L132.408759,13.5912409 L132.408759,14.9099757 L129.73236,14.9099757 L129.73236,21.5815085 L127.785888,21.5815085 L127.785888,14.9099757 L122.681265,14.9099757 C122.559611,17.1289538 121.892944,19.6545012 120.116788,21.5815085 L117.863747,21.5815085 C119.589139,19.7748042 120.603574,17.4054829 120.720195,14.9099757 L117.639903,14.9099757 L117.639903,13.5912409 L120.734793,13.5912409 L120.734793,8.48175182 L118.160584,8.48175182 L118.160584,7.15815085 L118.160584,7.15815085 Z M127.766423,8.48175182 L122.705596,8.48175182 L122.705596,13.5912409 L127.766423,13.5912409 L127.766423,8.48175182 Z M101.309002,7.15815085 L115.036496,7.15815085 L115.036496,8.48175182 L109.766423,12.5888078 L109.766423,13.5912409 L115.557178,13.5912409 L115.557178,14.9099757 L109.766423,14.9099757 L109.766423,20.6034063 C109.766423,21.1409097 109.330691,21.5766423 108.793187,21.5766423 L103.927007,21.5766423 L103.927007,20.2627737 L107.819951,20.2627737 L107.819951,14.9099757 L100.788321,14.9099757 L100.788321,13.5912409 L107.800487,13.5912409 L107.800487,11.7274939 L111.956204,8.48175182 L101.309002,8.48175182 L101.309002,7.15815085 Z M84.9148418,7.15815085 L98.9391727,7.15815085 L98.9391727,8.48175182 L94.0291971,8.48175182 L93.5863747,9.94160584 L98.3211679,9.94160584 L98.3211679,15.1386861 C98.3211679,15.6761895 97.8854353,16.1119221 97.3479319,16.1119221 L94.1849148,16.1119221 L94.1849148,20.5888078 C94.1849148,21.1263112 93.7491822,21.5620438 93.2116788,21.5620438 L90.8272506,21.5620438 L90.8272506,20.2627737 L92.2287105,20.2627737 L92.2287105,16.1216545 L88.0778589,16.1216545 L88.0778589,9.95620438 L91.4841849,9.95620438 L91.9270073,8.49635036 L86.8856448,8.49635036 L86.8856448,14.3844282 C86.8856448,16.7737226 86.5790754,19.7372263 85.4987835,21.5961071 L83.6982968,21.5961071 C84.7591241,19.2116788 84.9148418,16.8710462 84.9148418,14.5742092 L84.9148418,7.15815085 Z M95.620438,17.1776156 C95.7469586,18.7542579 96.107056,20.4671533 96.9975669,21.5815085 L98.9440389,21.5815085 C98.1539216,20.2427709 97.7044406,18.7305763 97.6350365,17.1776156 L95.620438,17.1776156 Z M90.5109489,17.1776156 L88.5158151,17.1776156 C88.446411,18.7305763 87.99693,20.2427709 87.2068127,21.5815085 L89.1532847,21.5815085 C90.0389294,20.4671533 90.3990268,18.7542579 90.5255474,17.1776156 L90.5109489,17.1776156 Z M90.0243309,12.379562 L95.5912409,12.379562 L95.5912409,13.6982968 L90.0243309,13.6982968 L90.0243309,14.8029197 L96.350365,14.8029197 L96.350365,11.2798054 L90.0243309,11.2798054 L90.0243309,12.379562 Z M79.8053528,21.5815085 L82.379562,21.5815085 C81.2294743,20.5163126 80.2131021,19.315294 79.3527981,18.0048662 C80.5888078,15.8686131 81.2506083,13.4355231 81.4014599,10.3649635 L82.1605839,10.3649635 L82.1605839,9.02676399 L77.5571776,9.02676399 C77.6593674,8.32603406 77.7274939,7.6107056 77.7615572,6.90024331 L75.6982968,6.90024331 C75.7109503,9.11595608 75.2305737,11.3067394 74.2919708,13.3138686 L75.5474453,13.3138686 C75.8318548,14.9518018 76.3721139,16.5348101 77.1484185,18.0048662 C76.3253947,19.347097 75.3087618,20.5604975 74.1313869,21.6058394 L76.4914842,21.6058394 C77.1051985,21.0114445 77.6775016,20.3757328 78.2043796,19.703163 C78.6863135,20.3715819 79.2217308,20.9997615 79.8053528,21.5815085 L79.8053528,21.5815085 Z M77.0462287,11.323601 C77.1435523,10.999189 77.2311436,10.674777 77.3090024,10.350365 L79.3917275,10.350365 C79.2773603,12.2277322 78.8786576,14.0768595 78.2092457,15.8345499 C77.6154571,14.3933995 77.2240685,12.8769736 77.0462287,11.3284672 L77.0462287,11.323601 Z M53.8686131,33.2214112 C53.2124824,33.2319446 52.5633793,33.0851038 51.9756691,32.7931873 C51.4473812,32.5328822 51.0024042,32.1300432 50.6909976,31.6301703 C50.08126,30.5297505 50.08126,29.1928772 50.6909976,28.0924574 C50.9982808,27.5806843 51.4435058,27.1658155 51.9756691,26.8953771 C53.172447,26.3217545 54.5647792,26.3217545 55.7615572,26.8953771 C56.2959705,27.1644094 56.7431192,27.5794984 57.0510949,28.0924574 C57.6543998,29.1945315 57.6543998,30.5280963 57.0510949,31.6301703 C56.7448971,32.1457819 56.2973987,32.5628841 55.7615572,32.8321168 C55.1740393,33.1245734 54.5248028,33.2714444 53.8686131,33.2603406 L53.8686131,33.2214112 Z M53.8686131,32.2043796 C54.2605045,32.2115053 54.6465511,32.1086719 54.9829684,31.9075426 C55.3120826,31.7062254 55.5757687,31.4138043 55.7420925,31.0656934 C56.0989184,30.2752238 56.0989184,29.3695451 55.7420925,28.5790754 C55.5725931,28.2410351 55.3111597,27.9576749 54.9878345,27.7615572 C54.2995069,27.3653067 53.452318,27.3653067 52.7639903,27.7615572 C52.4387756,27.9639644 52.1773252,28.25409 52.0097324,28.5985401 C51.6529064,29.3890098 51.6529064,30.2946885 52.0097324,31.0851582 C52.1756657,31.4320011 52.4373876,31.7241166 52.7639903,31.9270073 C53.0986896,32.1279834 53.4831383,32.2308403 53.8734793,32.2238443 L53.8686131,32.2043796 Z M65.0218978,28.7104623 C65.0291157,29.1064324 64.9153764,29.4951834 64.6958637,29.8248175 C64.4672196,30.1566289 64.1503391,30.4178868 63.7810219,30.5790754 C63.3501595,30.7673024 62.883728,30.8602567 62.4136253,30.8515815 L61.0024331,30.8515815 L61.0024331,33.1435523 L59.4939173,33.1435523 L59.4939173,26.5547445 L62.4136253,26.5547445 C62.8833717,26.5445358 63.3497884,26.6358273 63.7810219,26.8223844 C64.1582997,26.981289 64.4836117,27.24255 64.7201946,27.5766423 C64.940661,27.9076475 65.0544431,28.2982429 65.0462287,28.6958637 L65.0218978,28.7104623 Z M63.513382,28.7104623 C63.5356116,28.3781816 63.3960706,28.0556063 63.1386861,27.8442822 C62.8298182,27.625706 62.455524,27.5192554 62.0778589,27.5425791 L61.0024331,27.5425791 L61.0024331,29.8734793 L62.0778589,29.8734793 C62.4557811,29.8992166 62.8308697,29.79254 63.1386861,29.5717762 C63.3952833,29.3619777 63.5348238,29.0412156 63.513382,28.7104623 L63.513382,28.7104623 Z M68.4087591,27.6155718 L68.4087591,29.1776156 L71.5766423,29.1776156 L71.5766423,30.2141119 L68.4087591,30.2141119 L68.4087591,32.1021898 L71.8150852,32.1021898 L71.8150852,33.1435523 L66.9051095,33.1435523 L66.9051095,26.5547445 L71.810219,26.5547445 L71.810219,27.6009732 L68.4087591,27.6155718 Z M80.379562,26.5693431 L80.379562,33.1289538 L79.0170316,33.1289538 L75.2749392,28.5255474 L75.2749392,33.1289538 L73.9124088,33.1289538 L73.9124088,26.5547445 L75.5036496,26.5547445 L79.026764,30.9051095 L79.026764,26.5547445 L80.379562,26.5693431 Z M87.0121655,31.459854 L84.1849148,31.459854 L83.5815085,33.1435523 L82.0437956,33.1435523 L84.7055961,26.5693431 L86.5644769,26.5693431 L89.2262774,33.1435523 L87.6009732,33.1435523 L86.9975669,31.459854 L87.0121655,31.459854 Z M86.6180049,30.3990268 L85.6009732,27.5523114 L84.5742092,30.3990268 L86.6180049,30.3990268 Z M95.9124088,27.6009732 L93.8199513,27.6009732 L93.8199513,33.1289538 L92.3114355,33.1289538 L92.3114355,27.6009732 L90.2189781,27.6009732 L90.2189781,26.5547445 L95.9221411,26.5547445 L95.9221411,27.6009732 L95.9124088,27.6009732 Z M100.905109,33.2408759 C100.24892,33.2519797 99.5996834,33.1051087 99.0121655,32.8126521 C98.4849076,32.5455598 98.0431822,32.1358679 97.7372263,31.6301703 C97.1209073,30.5314612 97.1209073,29.1911665 97.7372263,28.0924574 C98.0445095,27.5806843 98.4897345,27.1658155 99.0218978,26.8953771 C100.218676,26.3217545 101.611008,26.3217545 102.807786,26.8953771 C103.341807,27.1631504 103.787702,27.578643 104.092457,28.0924574 C104.702195,29.1928772 104.702195,30.5297505 104.092457,31.6301703 C103.789301,32.1464812 103.343104,32.5639462 102.807786,32.8321168 C102.220076,33.1240333 101.570973,33.2708741 100.914842,33.2603406 L100.905109,33.2408759 Z M100.905109,32.2238443 C101.29545,32.2308403 101.679899,32.1279834 102.014599,31.9270073 C102.343893,31.7259075 102.607634,31.4334261 102.773723,31.0851582 C103.130549,30.2946885 103.130549,29.3890098 102.773723,28.5985401 C102.607326,28.2517495 102.343547,27.9609165 102.014599,27.7615572 C101.679899,27.5605811 101.29545,27.4577242 100.905109,27.4647202 C100.514607,27.4563961 100.129796,27.5593499 99.7956204,27.7615572 C99.4704058,27.9639644 99.2089553,28.25409 99.0413625,28.5985401 C98.6845366,29.3890098 98.6845366,30.2946885 99.0413625,31.0851582 C99.3812529,31.8012512 100.112821,32.2482145 100.905109,32.2238443 L100.905109,32.2238443 Z M114.841849,33.1289538 L113.333333,33.1289538 L113.333333,28.2238443 L111.386861,33.1240876 L109.776156,33.1240876 L107.902676,28.2238443 L107.902676,33.1289538 L106.540146,33.1289538 L106.540146,26.5547445 L108.671533,26.5547445 L110.666667,31.7177616 L112.652068,26.5547445 L114.841849,26.5547445 L114.841849,33.1289538 Z M124.209246,27.6009732 L124.209246,29.2506083 L127.270073,29.2506083 L127.270073,30.296837 L124.209246,30.296837 L124.209246,33.1289538 L122.70073,33.1289538 L122.70073,26.5547445 L127.493917,26.5547445 L127.493917,27.6009732 L124.209246,27.6009732 Z M132.846715,33.2408759 C132.190585,33.2514094 131.541481,33.1045686 130.953771,32.8126521 C130.426513,32.5455598 129.984788,32.1358679 129.678832,31.6301703 C129.069095,30.5297505 129.069095,29.1928772 129.678832,28.0924574 C129.986115,27.5806843 130.43134,27.1658155 130.963504,26.8953771 C132.160282,26.3217545 133.552614,26.3217545 134.749392,26.8953771 C135.283805,27.1644094 135.730954,27.5794984 136.038929,28.0924574 C136.642234,29.1945315 136.642234,30.5280963 136.038929,31.6301703 C135.732732,32.1457819 135.285233,32.5628841 134.749392,32.8321168 C134.161874,33.1245734 133.512637,33.2714444 132.856448,33.2603406 L132.846715,33.2408759 Z M132.846715,32.2238443 C133.238607,32.23097 133.624653,32.1281367 133.961071,31.9270073 C134.28912,31.724411 134.552489,31.4323421 134.720195,31.0851582 C135.077021,30.2946885 135.077021,29.3890098 134.720195,28.5985401 C134.552406,28.2526878 134.28895,27.9622107 133.961071,27.7615572 C133.624653,27.5604278 133.238607,27.4575944 132.846715,27.4647202 C132.456278,27.4569314 132.071613,27.559846 131.737226,27.7615572 C131.412012,27.9639644 131.150561,28.25409 130.982968,28.5985401 C130.626142,29.3890098 130.626142,30.2946885 130.982968,31.0851582 C131.148902,31.4320011 131.410624,31.7241166 131.737226,31.9270073 C132.071613,32.1287185 132.456278,32.2316331 132.846715,32.2238443 L132.846715,32.2238443 Z M141.6691,33.2311436 C141.083853,33.2441535 140.501785,33.1416301 139.956204,32.9294404 C139.507031,32.7577805 139.117951,32.4583577 138.836983,32.0681265 C138.569447,31.6812906 138.431449,31.2195916 138.442822,30.7493917 L138.442822,26.5547445 L139.854015,26.5547445 L139.854015,30.6569343 C139.82146,31.0968846 139.989597,31.5279614 140.311436,31.8296837 C141.101408,32.3611686 142.134602,32.3611686 142.924574,31.8296837 C143.244623,31.527058 143.410924,31.0961056 143.377129,30.6569343 L143.377129,26.5547445 L144.880779,26.5547445 L144.880779,30.7493917 C144.891269,31.2187522 144.755193,31.6797104 144.491484,32.0681265 C144.209495,32.4573673 143.82074,32.75654 143.372263,32.9294404 C142.829824,33.1407392 142.251114,33.2432537 141.6691,33.2311436 L141.6691,33.2311436 Z M153.532847,26.5547445 L153.532847,33.1289538 L152.170316,33.1289538 L148.418491,28.5255474 L148.418491,33.1289538 L147.055961,33.1289538 L147.055961,26.5547445 L148.652068,26.5547445 L152.175182,30.9051095 L152.175182,26.5547445 L153.532847,26.5547445 Z M162.3309,29.8442822 C162.346066,30.4496856 162.198161,31.0480289 161.902676,31.5766423 C161.612665,32.0727413 161.182707,32.4722298 160.666667,32.7250608 C160.082406,33.0045089 159.440689,33.1428533 158.793187,33.1289538 L155.746959,33.1289538 L155.746959,26.5547445 L158.793187,26.5547445 C159.440689,26.540845 160.082406,26.6791893 160.666667,26.9586375 C161.182571,27.2162163 161.612123,27.6187096 161.902676,28.1167883 C162.195987,28.6444947 162.343773,29.2406767 162.3309,29.8442822 L162.3309,29.8442822 Z M160.836983,29.8442822 C160.863797,29.2446773 160.646033,28.6598771 160.233577,28.2238443 C159.766803,27.8008581 159.149508,27.583402 158.520681,27.620438 L157.265207,27.620438 L157.265207,32.107056 L158.520681,32.107056 C159.149508,32.1440919 159.766803,31.9266358 160.233577,31.5036496 C160.654576,31.064467 160.876315,30.4714031 160.846715,29.863747 L160.836983,29.8442822 Z M168.574209,31.4452555 L165.761557,31.4452555 L165.153285,33.1289538 L163.620438,33.1289538 L166.277372,26.5547445 L168.141119,26.5547445 L170.80292,33.1289538 L169.182482,33.1289538 L168.579075,31.4452555 L168.574209,31.4452555 Z M168.189781,30.3990268 L167.172749,27.5523114 L166.145985,30.3990268 L168.189781,30.3990268 Z M177.479319,27.6009732 L175.386861,27.6009732 L175.386861,33.1289538 L173.883212,33.1289538 L173.883212,27.6009732 L171.776156,27.6009732 L171.776156,26.5547445 L177.474453,26.5547445 L177.474453,27.6009732 L177.479319,27.6009732 Z M180.92944,26.5547445 L180.92944,33.1289538 L179.420925,33.1289538 L179.420925,26.5547445 L180.92944,26.5547445 Z M186.618005,33.2408759 C185.963375,33.2519613 185.315721,33.1050705 184.729927,32.8126521 C184.202669,32.5455598 183.760944,32.1358679 183.454988,31.6301703 C182.838669,30.5314612 182.838669,29.1911665 183.454988,28.0924574 C183.762271,27.5806843 184.207496,27.1658155 184.739659,26.8953771 C185.325453,26.6029587 185.973108,26.4560679 186.627737,26.4671533 C187.285429,26.4565969 187.936115,26.6034184 188.525547,26.8953771 C189.059569,27.1631504 189.505463,27.578643 189.810219,28.0924574 C190.419957,29.1928772 190.419957,30.5297505 189.810219,31.6301703 C189.507063,32.1464812 189.060865,32.5639462 188.525547,32.8321168 C187.936115,33.1240755 187.285429,33.2708971 186.627737,33.2603406 L186.618005,33.2408759 Z M186.618005,32.2238443 C187.009676,32.2291768 187.395242,32.1264715 187.73236,31.9270073 C188.06041,31.724411 188.323778,31.4323421 188.491484,31.0851582 C188.84831,30.2946885 188.84831,29.3890098 188.491484,28.5985401 C188.323696,28.2526878 188.06024,27.9622107 187.73236,27.7615572 C187.396148,27.5599417 187.00996,27.4570705 186.618005,27.4647202 C186.229116,27.4570541 185.846046,27.5599934 185.513382,27.7615572 C185.186949,27.9625049 184.925139,28.2530291 184.759124,28.5985401 C184.402298,29.3890098 184.402298,30.2946885 184.759124,31.0851582 C184.925057,31.4320011 185.186779,31.7241166 185.513382,31.9270073 C185.846976,32.1263853 186.229407,32.229153 186.618005,32.2238443 L186.618005,32.2238443 Z M198.715328,26.5547445 L198.715328,33.1289538 L197.352798,33.1289538 L193.605839,28.5255474 L193.605839,33.1289538 L192.243309,33.1289538 L192.243309,26.5547445 L193.839416,26.5547445 L197.36253,30.9051095 L197.36253,26.5547445 L198.715328,26.5547445 Z" id="形状" fill="#FFFFFF"></path>
        </g>
    </g>
</svg>