<?xml version="1.0" encoding="UTF-8"?><svg id="_图层_1" xmlns="http://www.w3.org/2000/svg" xmlns:xlink="http://www.w3.org/1999/xlink" viewBox="0 0 410.9 82.5"><defs><style>.cls-1{fill:url(#linear-gradient);}.cls-1,.cls-2{fill-rule:evenodd;}.cls-2{fill:#231815;}</style><linearGradient id="linear-gradient" x1="55.6" y1="64.5" x2="27.7" y2="19.5" gradientUnits="userSpaceOnUse"><stop offset="0" stop-color="#1281ff"/><stop offset="1" stop-color="#5ce9ff"/></linearGradient></defs><path class="cls-1" d="m77.9,22.4c2.9,5.7,4.6,12.1,4.6,18.9s-.1,3.9-.4,5.8c-9-5.3-18.6-8.7-28.5-10.2l-6-14.4h30.3Zm-43.5,13.7c2.3-.2,4.5-.3,6.8-.3,2.3,0,4.5.1,6.8.3l-3.8-11.9c-.4-1.4-1.7-2-3-2-1.3,0-2.6.7-3,2l-3.8,11.9h0ZM4.6,22.4h30.3l-6,14.4c-9.9,1.6-19.6,5-28.5,10.2-.3-1.9-.4-3.8-.4-5.8,0-6.8,1.6-13.2,4.6-18.9h0Zm75.1,33.9c-7.2-7.6-15.6-12.7-24.4-15.4l11.6,27.9c1.1,2.5,2.4,2.8,4,1.2,3.8-3.9,6.8-8.5,8.8-13.6h0Zm-76.8,0c2,5.1,5,9.7,8.8,13.6,1.6,1.7,3,1.4,4-1.2l11.6-27.9c-8.8,2.7-17.1,7.8-24.4,15.4h0Zm58.4,21l-12.1-37.8c-2.6-.4-5.2-.7-7.9-.7-2.6,0-5.3.2-7.9.7l-12.1,37.8c5.9,3.3,12.8,5.2,20,5.2s14.1-1.9,20-5.2h0ZM41.2,0c13.2,0,24.9,6.2,32.4,15.8-10.5,2.5-21.4,3.8-32.4,3.8s-21.9-1.3-32.4-3.8C16.4,6.2,28.1,0,41.2,0Z"/><path class="cls-2" d="m137.3,18.6h6.4l-1.3-4.4h4l1.3,4.4h5.2v2.7h-9v3.4h7.5v17.7c0,1.1-.9,2-2,2h-5.3v-2.7h3.2v-14.3h-3.4v1.9c0,5-.7,11.4-3.6,15.1h-3.7c2.8-5.1,3.2-9.9,3.2-14.7v-8.4h-2.7v-2.7h0Zm-33-3.8h28.2v2.7h-4.4v10.5h5.5v2.7h-5.5v13.7h-4v-13.7h-10.4c-.3,4.6-1.6,9.7-5.3,13.7h-4.6c3.8-3.9,5.6-8.9,5.9-13.7h-6.3v-2.7h6.4v-10.5h-5.3v-2.7h0Zm19.7,2.7h-10.4v10.5h10.4v-10.5h0Zm264.5,0c-.9,3.4-2.6,6.4-4.7,8.9h-3.9c2.3-3.2,4.1-6.7,5.1-11.6h20.8c1,4.9,2.8,8.3,5.1,11.6h-3.9c-2.2-2.5-3.8-5.4-4.7-8.9h-13.8Zm-.3,24.2h14.6l-2-5.3h4.2l3,8.1h-25.4l4.6-11.2h-4.8v-2.7h25.8v2.7h-16.6l-3.5,8.5h0Zm-1.8-18.1v2.7h18v-2.7h-18Zm-32.5-6.2c-.9,3.4-2.6,6.4-4.7,8.9h-3.9c2.3-3.2,4.1-6.7,5.1-11.6h20.8c1,4.9,2.8,8.3,5.1,11.6h-3.9c-2.2-2.5-3.8-5.4-4.7-8.9h-13.8Zm18.4,18h-4.2l-2.1,6.2h-3.2v-8.5h10.9v-2.7h-10.9v-4.1h7v-2.7h-18v2.7h7v4.1h-10.9v2.7h10.9v8.5h-3.2l-2.1-6.2h-4.2l2.1,6.2h-5.7v2.7h30.3v-2.7h-5.7l2.1-6.2h0Zm-60.2-19.3h3.1v-2h4v2h13.8v-2h4v2h3.1v2.7h-3.1v11.6h4.2v2.7h-4.2c.7,2.3,1.7,4.3,3.5,6.6h-3.9c-1.7-1.8-2.9-4.2-3.7-6.6h-4.8v2.5h5v2.7h-5v3.3h13.2v2.7h-30.3v-2.7h13.2v-3.3h-5v-2.7h5v-2.5h-4.8c-.8,2.4-2,4.8-3.7,6.6h-3.9c1.8-2.3,2.8-4.3,3.5-6.6h-4.2v-2.7h4.2v-11.6h-3.1v-2.7h0Zm7.2,9.5h12.6v2.7h-12.6v2h13.8v-11.6h-13.8v2h12.6v2.7h-12.6v2h0Zm-34.8-10.9h23v2.7h-7.7l-.7,3h7.2v10.6c0,1.1-.9,2-2,2h-3.9v9.2c0,1.1-.9,2-2,2h-3.6v-2.7h1.6v-8.5h-5.9v-12.7h4.4l.7-3h-7v12.1c0,4.9-.6,11-2.8,14.8h-3.7c2.2-4.9,2.5-9.7,2.5-14.4v-15.2h0Zm-8.2,6.6l1.7,4.6h4l-1.7-4.6h-4Zm0-6.6l1.7,4.6h4l-1.7-4.6h-4Zm5.7,13.2h-4.1c0,6.7-.7,10.9-2.7,16.4h4c1.9-4.2,2.8-9.9,2.8-16.4h0Zm19.4,7.4c.1,3.2.8,6.6,2.6,9.1h3.7c-1.7-3.1-2.2-5.7-2.4-9.1h-4Zm-6.8,0h-4c-.1,3.4-.7,5.9-2.4,9.1h3.7c1.7-2.4,2.4-5.8,2.6-9.1h0Zm-.3-9.9h6.5v2.7h-6.5v2.3h7.8v-7.2h-7.8v2.3h0Zm-51.6-10.7h28.2v2.7h-4.4v10.5h5.5v2.7h-5.5v13.7h-4v-13.7h-10.4c-.3,4.6-1.6,9.7-5.3,13.7h-4.6c3.8-3.9,5.6-8.9,5.9-13.7h-6.3v-2.7h6.4v-10.5h-5.3v-2.7h0Zm19.7,2.7h-10.4v10.5h10.4v-10.5h0Zm-54.4-2.7h28.2v2.7l-10.8,8.4v2.1h11.9v2.7h-11.9v11.7c0,1.1-.9,2-2,2h-10v-2.7h8v-11h-14.4v-2.7h14.4v-3.8l8.5-6.7h-21.9v-2.7h0Zm-33.7,0h28.8v2.7h-10.1l-.9,3h9.7v10.6c0,1.1-.9,2-2,2h-6.5v9.2c0,1.1-.9,2-2,2h-4.9v-2.7h2.9v-8.5h-8.5v-12.7h7l.9-3h-10.4v12.1c0,4.9-.6,11-2.8,14.8h-3.7c2.2-4.9,2.5-9.7,2.5-14.4v-15.2h0Zm22,20.6c.3,3.2,1,6.8,2.8,9.1h4c-1.8-3.1-2.4-5.7-2.7-9.1h-4.1Zm-10.5,0h-4.1c-.3,3.4-.9,5.9-2.7,9.1h4c1.8-2.3,2.6-5.8,2.8-9.1h0Zm-1-9.9h11.4v2.7h-11.4v2.3h13v-7.2h-13v2.3h0Zm-21,18.9h5.3c-2.6-2.5-4.6-4.9-6.2-7.4,2.5-4.4,3.9-9.4,4.2-15.7h1.6v-2.7h-9.5c.2-1.4.4-2.9.4-4.4h-4.2c-.1,4.9-.7,8.4-2.9,13.2h2.6c.6,3.3,1.6,6.5,3.3,9.6-1.7,2.8-3.8,5.2-6.2,7.4h4.8c1.3-1.3,2.5-2.6,3.5-3.9,1,1.3,2.1,2.7,3.3,3.9h0Zm-5.7-21.1c.2-.7.4-1.3.5-2h4.3c-.3,4.4-1.2,8.1-2.4,11.3-1.2-2.9-2-5.9-2.4-9.3h0Zm-47.6,45c-1.5,0-2.8-.3-3.9-.9-1.1-.6-2-1.4-2.6-2.5-.6-1.1-.9-2.3-.9-3.6s.3-2.6.9-3.6c.6-1.1,1.5-1.9,2.6-2.5,1.1-.6,2.4-.9,3.9-.9s2.8.3,3.9.9c1.1.6,2,1.4,2.6,2.5.6,1.1.9,2.3.9,3.6s-.3,2.6-.9,3.6c-.6,1.1-1.5,1.9-2.6,2.5-1.1.6-2.4.9-3.9.9h0Zm0-2.1c.9,0,1.6-.2,2.3-.6.7-.4,1.2-1,1.6-1.7.4-.7.6-1.6.6-2.6s-.2-1.8-.6-2.6c-.4-.7-.9-1.3-1.6-1.7-.7-.4-1.4-.6-2.3-.6s-1.6.2-2.3.6c-.7.4-1.2,1-1.5,1.7-.4.7-.6,1.6-.6,2.6s.2,1.8.6,2.6c.4.7.9,1.3,1.5,1.7.7.4,1.4.6,2.3.6h0Zm22.9-7.3c0,.9-.2,1.6-.7,2.3-.4.7-1.1,1.2-1.9,1.5-.8.4-1.7.6-2.8.6h-2.9v4.7h-3.1v-13.5h6c1.1,0,2,.2,2.8.6.8.4,1.4.9,1.9,1.5.4.7.7,1.4.7,2.3h0Zm-3.1,0c0-.8-.3-1.4-.8-1.8-.5-.4-1.2-.6-2.2-.6h-2.2v4.8h2.2c.9,0,1.7-.2,2.2-.6.5-.4.8-1,.8-1.8h0Zm10.1-2.2v3.2h6.5v2.1h-6.5v3.9h7v2.1h-10.1v-13.5h10.1v2.2h-7Zm24.6-2.2v13.5h-2.8l-7.7-9.5v9.5h-2.8v-13.5h3.3l7.2,8.9v-8.9h2.8Zm13.6,10.1h-5.8l-1.2,3.5h-3.2l5.5-13.5h3.8l5.5,13.5h-3.3l-1.2-3.5h0Zm-.8-2.2l-2.1-5.9-2.1,5.9h4.2Zm19.1-5.8h-4.3v11.4h-3.1v-11.4h-4.3v-2.2h11.7v2.2h0Zm10.3,11.6c-1.5,0-2.8-.3-3.9-.9-1.1-.6-2-1.4-2.6-2.5-.6-1.1-.9-2.3-.9-3.6s.3-2.6.9-3.6c.6-1.1,1.5-1.9,2.6-2.5,1.1-.6,2.4-.9,3.9-.9s2.8.3,3.9.9c1.1.6,2,1.4,2.6,2.5.6,1.1.9,2.3.9,3.6s-.3,2.6-.9,3.6c-.6,1.1-1.5,1.9-2.6,2.5-1.1.6-2.4.9-3.9.9h0Zm0-2.1c.9,0,1.6-.2,2.3-.6.7-.4,1.2-1,1.6-1.7.4-.7.6-1.6.6-2.6s-.2-1.8-.6-2.6c-.4-.7-.9-1.3-1.6-1.7-.7-.4-1.4-.6-2.3-.6s-1.6.2-2.3.6c-.7.4-1.2,1-1.5,1.7-.4.7-.6,1.6-.6,2.6s.2,1.8.6,2.6c.4.7.9,1.3,1.5,1.7.7.4,1.4.6,2.3.6h0Zm28.6,1.9h-3.1v-10.1l-3.9,10.1h-3.3l-3.9-10.1v10.1h-2.8v-13.5h4.4l4.1,10.6,4.1-10.6h4.5v13.5h0Zm19.3-11.4v3.4h6.3v2.2h-6.3v5.8h-3.1v-13.5h9.8v2.2h-6.7Zm17.8,11.6c-1.5,0-2.8-.3-3.9-.9-1.1-.6-2-1.4-2.6-2.5-.6-1.1-.9-2.3-.9-3.6s.3-2.6.9-3.6c.6-1.1,1.5-1.9,2.6-2.5,1.1-.6,2.4-.9,3.9-.9s2.8.3,3.9.9c1.1.6,2,1.4,2.6,2.5.6,1.1.9,2.3.9,3.6s-.3,2.6-.9,3.6c-.6,1.1-1.5,1.9-2.6,2.5-1.1.6-2.4.9-3.9.9h0Zm0-2.1c.9,0,1.6-.2,2.3-.6.7-.4,1.2-1,1.6-1.7.4-.7.6-1.6.6-2.6s-.2-1.8-.6-2.6c-.4-.7-.9-1.3-1.6-1.7-.7-.4-1.4-.6-2.3-.6s-1.6.2-2.3.6c-.7.4-1.2,1-1.5,1.7-.4.7-.6,1.6-.6,2.6s.2,1.8.6,2.6c.4.7.9,1.3,1.5,1.7.7.4,1.4.6,2.3.6h0Zm18.1,2.1c-1.4,0-2.5-.2-3.5-.6-1-.4-1.8-1-2.3-1.8-.5-.8-.8-1.7-.8-2.7v-8.6h2.9v8.4c0,1.1.3,1.9.9,2.4.6.5,1.5.8,2.7.8s2.1-.3,2.7-.8c.6-.5.9-1.4.9-2.4v-8.4h3.1v8.6c0,1-.3,1.9-.8,2.7-.5.8-1.3,1.4-2.3,1.8-1,.4-2.2.6-3.5.6h0Zm24.4-13.7v13.5h-2.8l-7.7-9.5v9.5h-2.8v-13.5h3.3l7.2,8.9v-8.9h2.8Zm18.1,6.8c0,1.4-.3,2.5-.9,3.6-.6,1-1.4,1.8-2.5,2.4-1.1.6-2.4.8-3.9.8h-6.3v-13.5h6.3c1.5,0,2.8.3,3.9.8,1.1.6,1.9,1.4,2.5,2.4.6,1,.9,2.2.9,3.6h0Zm-3.1,0c0-1.4-.4-2.5-1.3-3.4-.8-.8-2-1.2-3.5-1.2h-2.6v9.2h2.6c1.5,0,2.7-.4,3.5-1.2.8-.8,1.3-2,1.3-3.4h0Zm15.9,3.3h-5.8l-1.2,3.5h-3.2l5.5-13.5h3.8l5.5,13.5h-3.3l-1.2-3.5h0Zm-.8-2.2l-2.1-5.9-2.1,5.9h4.2Zm19.1-5.8h-4.3v11.4h-3.1v-11.4h-4.3v-2.2h11.7v2.2h0Zm7.1-2.2v13.5h-3.1v-13.5h3.1Zm11.7,13.7c-1.5,0-2.8-.3-3.9-.9-1.1-.6-2-1.4-2.6-2.5-.6-1.1-.9-2.3-.9-3.6s.3-2.6.9-3.6c.6-1.1,1.5-1.9,2.6-2.5,1.1-.6,2.4-.9,3.9-.9s2.8.3,3.9.9c1.1.6,2,1.4,2.6,2.5.6,1.1.9,2.3.9,3.6s-.3,2.6-.9,3.6c-.6,1.1-1.5,1.9-2.6,2.5-1.1.6-2.4.9-3.9.9h0Zm0-2.1c.9,0,1.6-.2,2.3-.6.7-.4,1.2-1,1.6-1.7.4-.7.6-1.6.6-2.6s-.2-1.8-.6-2.6c-.4-.7-.9-1.3-1.6-1.7-.7-.4-1.4-.6-2.3-.6s-1.6.2-2.3.6c-.7.4-1.2,1-1.5,1.7-.4.7-.6,1.6-.6,2.6s.2,1.8.6,2.6c.4.7.9,1.3,1.5,1.7.7.4,1.4.6,2.3.6h0Zm24.9-11.7v13.5h-2.8l-7.7-9.5v9.5h-2.8v-13.5h3.3l7.2,8.9v-8.9h2.8Z"/></svg>